HIERARCHY
ROOT hip
{
	OFFSET 0.000000 0.000000 0.000000
	CHANNELS 6 Xposition Yposition Zposition Zrotation Yrotation Xrotation 
	JOINT lhipjoint
	{
		OFFSET 0.000000 0.000000 0.000000
		CHANNELS 3 Zrotation Yrotation Xrotation
		JOINT lfemur
		{
			OFFSET 1.363060 -1.794630 0.839290
			CHANNELS 3 Zrotation Yrotation Xrotation
			JOINT ltibia
			{
				OFFSET 2.448110 -6.726130 0.000000
				CHANNELS 3 Zrotation Yrotation Xrotation
				JOINT lfoot
				{
					OFFSET 2.562200 -7.039590 0.000000
					CHANNELS 3 Zrotation Yrotation Xrotation
					JOINT ltoes
					{
						OFFSET 0.157640 -0.433110 2.322550
						CHANNELS 3 Zrotation Yrotation Xrotation
						End Site
						{
							OFFSET 0.000000 0.000000 0.000000
						}
					}
				}
			}
		}
	}
	JOINT rhipjoint
	{
		OFFSET 0.000000 0.000000 0.000000
		CHANNELS 3 Zrotation Yrotation Xrotation
		JOINT rfemur
		{
			OFFSET -1.305520 -1.794630 0.839290
			CHANNELS 3 Zrotation Yrotation Xrotation
			JOINT rtibia
			{
				OFFSET -2.542530 -6.985550 0.000000
				CHANNELS 3 Zrotation Yrotation Xrotation
				JOINT rfoot
				{
					OFFSET -2.568260 -7.056230 0.000000
					CHANNELS 3 Zrotation Yrotation Xrotation
					JOINT rtoes
					{
						OFFSET -0.164730 -0.452590 2.363150
						CHANNELS 3 Zrotation Yrotation Xrotation
						End Site
						{
							OFFSET 0.000000 0.000000 0.000000
						}
					}
				}
			}
		}
	}
	JOINT lowerback
	{
		OFFSET 0.000000 0.000000 0.000000
		CHANNELS 3 Zrotation Yrotation Xrotation
		JOINT upperback
		{
			OFFSET 0.028270 2.035590 -0.193380
			CHANNELS 3 Zrotation Yrotation Xrotation
			JOINT thorax
			{
				OFFSET 0.056720 2.048850 -0.042750
				CHANNELS 3 Zrotation Yrotation Xrotation
				JOINT lowerneck
				{
					OFFSET 0.000000 0.000000 0.000000
					CHANNELS 3 Zrotation Yrotation Xrotation
					JOINT upperneck
					{
						OFFSET -0.054170 1.746240 0.172020
						CHANNELS 3 Zrotation Yrotation Xrotation
						JOINT head
						{
							OFFSET 0.104070 1.761360 -0.123970
							CHANNELS 3 Zrotation Yrotation Xrotation
							End Site
							{
								OFFSET 0.000000 0.000000 0.000000
							}
						}
					}
				}
				JOINT lclavicle
				{
					OFFSET 0.000000 0.000000 0.000000
					CHANNELS 3 Zrotation Yrotation Xrotation
					JOINT lhumerus
					{
						OFFSET 3.362410 1.200890 -0.311210
						CHANNELS 3 Zrotation Yrotation Xrotation
						JOINT lradius
						{
							OFFSET 4.983000 -0.000000 -0.000000
							CHANNELS 3 Zrotation Yrotation Xrotation
							JOINT lwrist
							{
								OFFSET 3.483560 -0.000000 -0.000000
								CHANNELS 3 Zrotation Yrotation Xrotation
								JOINT lhand
								{
									OFFSET 0.000000 0.000000 0.000000
									CHANNELS 3 Zrotation Yrotation Xrotation
									JOINT lfingers
									{
										OFFSET 0.715260 -0.000000 -0.000000
										CHANNELS 3 Zrotation Yrotation Xrotation
										End Site
										{
											OFFSET 0.000000 0.000000 0.000000
										}
									}
								}
								JOINT lthumb
								{
									OFFSET 0.000000 0.000000 0.000000
									CHANNELS 3 Zrotation Yrotation Xrotation
									End Site
									{
										OFFSET 0.000000 0.000000 0.000000
									}
								}
							}
						}
					}
				}
				JOINT rclavicle
				{
					OFFSET 0.000000 0.000000 0.000000
					CHANNELS 3 Zrotation Yrotation Xrotation
					JOINT rhumerus
					{
						OFFSET -3.136600 1.374050 -0.404650
						CHANNELS 3 Zrotation Yrotation Xrotation
						JOINT rradius
						{
							OFFSET -5.241900 -0.000000 -0.000000
							CHANNELS 3 Zrotation Yrotation Xrotation
							JOINT rwrist
							{
								OFFSET -3.444170 -0.000000 -0.000000
								CHANNELS 3 Zrotation Yrotation Xrotation
								JOINT rhand
								{
									OFFSET 0.000000 0.000000 0.000000
									CHANNELS 3 Zrotation Yrotation Xrotation
									JOINT rfingers
									{
										OFFSET -0.622530 -0.000000 -0.000000
										CHANNELS 3 Zrotation Yrotation Xrotation
										End Site
										{
											OFFSET 0.000000 0.000000 0.000000
										}
									}
								}
								JOINT rthumb
								{
									OFFSET 0.000000 0.000000 0.000000
									CHANNELS 3 Zrotation Yrotation Xrotation
									End Site
									{
										OFFSET 0.000000 0.000000 0.000000
									}
								}
							}
						}
					}
				}
			}
		}
	}
}
MOTION
Frames: 4
Frame Time: 0.008333
-3.430178 33.694974 19.653544 -173.297015 9.885965 175.738333 8.471213 1.959163 -0.788749 -22.311731 9.026012 -4.267610 9.854982 16.646271 56.466386 4.199444 7.351009 42.820731 0.245700 -3.190000 -8.808100 -12.067206 -2.944001 -3.794225 40.724337 0.485803 7.942778 -6.893198 -13.426955 42.018282 -1.237096 -21.194272 39.785405 -0.033700 1.185500 -3.259300 5.552895 0.691783 17.630391 -0.071135 1.796921 -2.759282 -5.714014 1.279033 -7.125735 -5.378431 2.496058 2.857969 2.061811 6.669545 17.162094 1.921300 3.809400 4.432000 -5.519625 -3.064567 -1.666958 -39.956370 -42.497812 32.929318 81.417759 -58.384805 -42.345860 1.329682 2.488622 -5.066653 14.813795 -12.723090 -3.566800 -7.125000 0.000000 0.000000 -9.646700 14.442500 7.038200 2.060522 4.173734 7.746643 58.808061 49.438127 40.876358 -61.029058 52.265354 -22.759420 -1.750157 -5.267416 18.912821 -25.807254 11.612029 -8.516900 7.125000 0.000000 0.000000 1.275000 -10.286600 1.027100 
-3.449682 33.785825 19.514132 -173.361256 9.891244 175.502661 8.475171 1.940702 -0.830177 -22.107329 8.766333 -4.601438 10.010309 16.795544 57.229175 4.764414 6.395706 44.444990 0.263000 -3.299400 -9.113400 -12.076883 -2.972172 -3.709823 40.655640 0.628833 7.047854 -7.242165 -13.815786 43.528434 -1.210904 -21.355769 39.674818 -0.039100 1.276200 -3.509100 5.416941 0.718178 18.023708 -0.070541 1.826289 -2.707131 -5.652713 1.361179 -6.939234 -5.466034 2.473556 2.973191 2.055112 6.680505 17.211516 1.929900 3.821700 4.318000 -5.437851 -2.962387 -1.201519 -41.676376 -41.424769 33.873668 80.000758 -58.483946 -41.186756 1.196620 2.547050 -4.866875 14.958323 -11.836073 -3.453800 -7.125000 0.000000 0.000000 -9.458300 15.249900 6.731100 1.856714 4.209995 7.480765 60.211131 46.927994 40.646240 -58.985791 52.488584 -21.641122 -1.619240 -5.224049 19.341594 -24.900889 11.051450 -7.913100 7.125000 0.000000 0.000000 1.713700 -11.189900 1.349200 
-3.469484 33.866627 19.374321 -173.405920 9.878658 175.259933 8.473237 1.921457 -0.871446 -21.898259 8.415706 -4.840790 10.163085 16.915991 57.781053 5.244564 6.018199 46.094221 0.203800 -2.906900 -8.019600 -12.087062 -2.997526 -3.629621 40.627354 0.792395 6.206027 -7.584842 -14.180462 44.952079 -1.144271 -21.652701 39.533193 -0.052400 1.477800 -4.064400 5.314367 0.723581 18.443219 -0.069057 1.837783 -2.653384 -5.604767 1.434065 -6.762285 -5.564497 2.468991 3.107146 2.070264 6.699890 17.245837 1.959600 3.834500 4.175300 -5.355607 -2.863308 -0.738725 -43.415461 -40.227603 34.665983 78.473471 -58.610583 -39.998874 1.040728 2.603524 -4.639694 15.109899 -10.831371 -3.311100 -7.125000 0.000000 0.000000 -9.250000 16.178900 6.391000 1.640783 4.248656 7.220838 61.489179 44.393362 40.456078 -56.620986 52.495701 -20.399991 -1.493519 -5.203990 19.545980 -24.450728 10.570180 -7.540600 7.125000 0.000000 0.000000 1.879300 -11.874200 1.453200 
-3.489087 33.935388 19.232919 -173.449403 9.843987 174.975523 8.464025 1.901585 -0.911674 -21.695986 8.046853 -4.963633 10.311838 17.007605 58.136226 5.636231 6.187565 47.658954 0.173700 -2.684600 -7.401700 -12.094072 -3.021601 -3.561316 40.584146 0.901801 5.435026 -7.910257 -14.512142 46.271942 -1.061817 -21.964803 39.365258 -0.068100 1.683900 -4.632900 5.221634 0.725585 18.922478 -0.066856 1.853351 -2.599855 -5.557724 1.509245 -6.614537 -5.651054 2.451199 3.237612 2.069993 6.710440 17.287755 1.974700 3.845200 4.057300 -5.258201 -2.784681 -0.292464 -45.224403 -38.965363 35.360620 76.643446 -58.752306 -38.616206 0.887818 2.654515 -4.367423 15.210923 -9.869019 -3.154500 -7.125000 0.000000 0.000000 -9.077300 17.077600 6.088800 1.421223 4.311869 6.948706 62.575976 41.736958 40.237508 -53.964922 52.276181 -19.080312 -1.382898 -5.200397 19.428521 -24.446825 10.240672 -7.400400 7.125000 0.000000 0.000000 1.790200 -12.278600 1.369200 
